<svg xmlns="http://www.w3.org/2000/svg" width="13.994" height="16" viewBox="0 0 13.994 16"><defs><style>.user-svg-icon{fill:#1f80f1;}</style></defs><path class="user-svg-icon" d="M7,9A4.5,4.5,0,1,0,2.5,4.5,4.5,4.5,0,0,0,7,9ZM7,1.5a3,3,0,1,1-3,3A3,3,0,0,1,7,1.5Zm2.8,8a3.091,3.091,0,0,0-1.006.194,5.406,5.406,0,0,1-3.587,0A3.091,3.091,0,0,0,4.2,9.5,4.2,4.2,0,0,0,0,13.7v1.55a.75.75,0,0,0,1.5,0V13.7A2.7,2.7,0,0,1,4,11.019v1.563a1.75,1.75,0,1,0,1,0v-1.4A6.909,6.909,0,0,0,7,11.5a6.893,6.893,0,0,0,2-.316v1.134a2.08,2.08,0,0,0-1.5,2.019v.913a.5.5,0,0,0,.147.353l.322.322a.251.251,0,0,0,.353,0l.353-.353a.251.251,0,0,0,0-.353L8.5,15.041V14.25a1,1,0,0,1,1.169-.988A1.04,1.04,0,0,1,10.5,14.3v.738l-.178.178a.251.251,0,0,0,0,.353l.353.353a.251.251,0,0,0,.353,0l.322-.322a.5.5,0,0,0,.147-.353v-1a1.994,1.994,0,0,0-1.5-1.925v-1.3a2.694,2.694,0,0,1,2.5,2.681V15.25a.75.75,0,0,0,1.5,0V13.7A4.192,4.192,0,0,0,9.8,9.5ZM5.25,14.25a.75.75,0,1,1-.75-.75A.748.748,0,0,1,5.25,14.25Z"/></svg>