<svg xmlns="http://www.w3.org/2000/svg" width="24" height="18" viewBox="0 0 24 18"><defs><style>.a{opacity:0.3;}</style></defs><path class="a" d="M21.75,64H2.25A2.251,2.251,0,0,0,0,66.25v13.5A2.251,2.251,0,0,0,2.25,82h19.5A2.251,2.251,0,0,0,24,79.75V66.25A2.251,2.251,0,0,0,21.75,64ZM2.25,65.5h19.5a.752.752,0,0,1,.75.75v1.941c-1.027.867-2.494,2.063-7.059,5.686C14.648,74.5,13.087,76.019,12,76c-1.087.019-2.653-1.5-3.441-2.123C3.994,70.253,2.527,69.058,1.5,68.191V66.25A.752.752,0,0,1,2.25,65.5Zm19.5,15H2.25a.752.752,0,0,1-.75-.75V70.141c1.069.877,2.756,2.231,6.127,4.908.961.769,2.658,2.461,4.373,2.452,1.706.014,3.389-1.664,4.373-2.452,3.37-2.677,5.058-4.031,6.127-4.908V79.75A.752.752,0,0,1,21.75,80.5Z" transform="translate(0 -64)"/></svg>