<?xml version="1.0" encoding="utf-8"?>
<!-- Generator: Adobe Illustrator 22.0.1, SVG Export Plug-In . SVG Version: 6.00 Build 0)  -->
<svg version="1.1" id="Layer_1" xmlns="http://www.w3.org/2000/svg" xmlns:xlink="http://www.w3.org/1999/xlink" x="0px" y="0px"
	 viewBox="0 0 815 250" style="enable-background:new 0 0 815 250;" xml:space="preserve">
<style type="text/css">
	.Drop_x0020_Shadow{fill:none;}
	.Round_x0020_Corners_x0020_2_x0020_pt{fill:#FFFFFF;stroke:#231F20;stroke-miterlimit:10;}
	.Live_x0020_Reflect_x0020_X{fill:none;}
	.Bevel_x0020_Soft{fill:url(#SVGID_1_);}
	.Dusk{fill:#FFFFFF;}
	.Foliage_GS{fill:#FFDD00;}
	.Pompadour_GS{fill-rule:evenodd;clip-rule:evenodd;fill:#44ADE2;}
	.st0{fill:#FFCD00;}
	.st1{fill:#76BC21;}
	.st2{fill:#FFA400;}
	.st3{fill:#231F20;}
	.st4{fill:#A7A8A9;}
</style>
<linearGradient id="SVGID_1_" gradientUnits="userSpaceOnUse" x1="11.5" y1="-181" x2="12.2071" y2="-180.2929">
	<stop  offset="0" style="stop-color:#DEDFE3"/>
	<stop  offset="0.1783" style="stop-color:#DADBDF"/>
	<stop  offset="0.3611" style="stop-color:#CECFD3"/>
	<stop  offset="0.546" style="stop-color:#B9BCBF"/>
	<stop  offset="0.7324" style="stop-color:#9CA0A2"/>
	<stop  offset="0.9181" style="stop-color:#787D7E"/>
	<stop  offset="1" style="stop-color:#656B6C"/>
</linearGradient>
<g>
	<g>
		<g>
			<path class="st0" d="M46.3,146.8c46.5,11,90.5,2.9,134.7-18.2c14.2,26.1,29.2,51.3,25,81.9c-4,28.9-26.5,41.2-53.9,31
				c-35.1-13-61.2-37.9-85.5-65c-7.7-8.6-25.9-31-25.9-31S40.6,145.5,46.3,146.8z"/>
			<path class="st1" d="M221.4,179c-13.8-45.8-42.9-79.7-83.4-107.4c15.5-25.4,29.7-51,58.3-62.7c27-11.1,48.9,2.3,53.9,31.1
				c6.4,36.9-2,72-13.3,106.6c-3.6,11-13.8,38-13.8,38S223.2,184.5,221.4,179z"/>
			<path class="st2" d="M160.5,14c-33.2,34.4-48.7,76.4-53.1,125.2c-29.7-1.1-59-1-83.2-20.3C1.3,100.7,2.3,75,25,56.6
				c29.1-23.6,63.8-33.3,99.6-40.4c11.3-2.2,39.9-6.5,39.9-6.5S164.4,9.7,160.5,14z"/>
		</g>
		<g>
			<path class="st3" d="M312.6,100.7c2.6-7.3,8.1-13.5,16.4-18.6c8.3-5.1,17-7.7,26.1-7.7h67.4c2.4,0,3.6,0.9,3.6,2.6
				c0,0.7-0.2,1.4-0.5,2.3l-1.2,3.3c-1.2,3.3-3.4,4.9-6.7,4.9h-67.4c-4.6,0-8.9,1.3-13.1,3.8c-4.1,2.6-6.9,5.7-8.2,9.3l-4.8,13.2
				h70.7c2.4,0,3.6,0.9,3.6,2.6c0,0.7-0.2,1.4-0.5,2.3l-1.2,3.3c-1.2,3.3-3.5,4.9-6.8,4.9h-70.7l-12.6,34.5
				c-1.2,3.3-3.4,4.9-6.7,4.9h-6.6c-2.4,0-3.6-0.9-3.6-2.6c0-0.7,0.2-1.4,0.5-2.3L312.6,100.7z"/>
			<path class="st3" d="M425.3,161.6c-1.2,3.3-3.4,4.9-6.7,4.9H412c-2.4,0-3.6-0.9-3.6-2.6c0-0.7,0.2-1.4,0.5-2.3l29.9-82.2
				c1.2-3.3,3.5-4.9,6.8-4.9h6.6c2.4,0,3.6,0.9,3.6,2.6c0,0.7-0.2,1.4-0.5,2.3L425.3,161.6z"/>
			<path class="st3" d="M469.5,166.5c-9.1,0-15.9-2.6-20.5-7.7c-2.9-3.2-4.3-6.9-4.3-11.1c0-2.4,0.5-4.9,1.4-7.6l14.4-39.5
				c2.6-7.3,8.1-13.5,16.4-18.6c8.3-5.1,17-7.7,26-7.7h67.4c2.4,0,3.6,0.9,3.6,2.6c0,0.7-0.1,1.4-0.5,2.3l-1.2,3.3
				c-1.2,3.3-3.4,4.9-6.7,4.9h-67.4c-4.6,0-8.9,1.3-13.1,3.8c-4.1,2.6-6.9,5.7-8.2,9.3l-14.4,39.5c-0.5,1.3-0.7,2.6-0.7,3.8
				c0,2,0.7,3.8,2.2,5.5c2.3,2.6,5.7,3.9,10.3,3.9h55.9l9.7-26.7l-5.9-7.8c1.2-3.3,3.4-4.9,6.7-4.9h15.3c2.4,0,3.6,0.9,3.6,2.6
				c0,0.7-0.2,1.4-0.5,2.3l-15.6,42.7c-1.2,3.3-3.4,4.9-6.7,4.9H469.5z"/>
			<path class="st4" d="M621.1,120.5c0.5-1.4,0.7-2.6,0.7-3.8c0-2.1-0.7-3.9-2.1-5.5c-2.3-2.5-5.7-3.8-10.3-3.8
				c-4.6,0-8.9,1.3-13.1,3.8c-4.1,2.6-6.9,5.7-8.2,9.3l-15,41.1c-1.2,3.3-3.4,4.9-6.7,4.9H560c-2.4,0-3.6-0.9-3.6-2.6
				c0-0.7,0.2-1.4,0.5-2.3l15-41.1c2.6-7.3,8.1-13.5,16.4-18.6c8.3-5.1,17-7.7,26-7.7c9.1,0,15.9,2.6,20.5,7.7
				c0.4,0.4,0.7,0.8,0.9,1.2c0.6-0.4,1.2-0.8,1.9-1.2c8.2-5.1,16.9-7.7,26-7.7c9.1,0,15.9,2.6,20.5,7.7c2.9,3.2,4.3,6.9,4.3,11
				c0,2.4-0.5,4.9-1.4,7.6l-15,41.1c-1.2,3.3-3.4,4.9-6.7,4.9h-6.6c-2.4,0-3.6-0.9-3.6-2.6c0-0.7,0.2-1.4,0.5-2.3l15-41.1
				c0.5-1.4,0.7-2.6,0.7-3.8c0-2.1-0.7-3.9-2.1-5.5c-2.3-2.5-5.7-3.8-10.3-3.8c-4.6,0-8.9,1.3-13.1,3.8c-4.1,2.6-6.9,5.7-8.2,9.3
				l-15,41.1c-1.2,3.3-3.4,4.9-6.7,4.9h-6.6c-2.4,0-3.6-0.9-3.6-2.6c0-0.7,0.2-1.4,0.5-2.3L621.1,120.5z"/>
			<path class="st4" d="M790.6,79.4c1.2-3.3,3.4-4.9,6.7-4.9h6.6c2.4,0,3.6,0.9,3.6,2.6c0,0.7-0.2,1.4-0.5,2.3l-22.2,60.8
				c-2.6,7.3-8.1,13.5-16.4,18.6c-8.3,5.1-17,7.7-26,7.7h-26.3c-9.1,0-15.9-2.6-20.5-7.7c-2.9-3.2-4.3-6.9-4.3-11.1
				c0-2.4,0.5-4.9,1.4-7.6l7.2-19.7c2.6-7.3,8.1-13.5,16.4-18.6c8.3-5.1,17-7.7,26-7.7l42.8-0.1L790.6,79.4z M780.4,107.3h-42.7
				c-4.6,0-8.9,1.3-13,3.8c-4.1,2.6-6.8,5.7-8.2,9.3l-7.2,19.7c-0.5,1.3-0.7,2.6-0.7,3.8c0,2,0.7,3.8,2.2,5.5
				c2.3,2.6,5.7,3.9,10.3,3.9h26.3c4.6,0,8.9-1.3,13-3.8c4.1-2.6,6.8-5.7,8.2-9.3L780.4,107.3z"/>
		</g>
	</g>
</g>
</svg>
