<svg xmlns="http://www.w3.org/2000/svg" width="32.97" height="24" viewBox="0 0 32.97 32.97"><defs><style>.a{fill:#fbbb00;}.b{fill:#518ef8;}.c{fill:#28b446;}.d{fill:#f14336;}</style></defs><path class="a" d="M6.644,148.288l-1.044,3.9-3.814.081a15.015,15.015,0,0,1-.11-14h0l3.4.623,1.487,3.375a8.946,8.946,0,0,0,.084,6.023Z" transform="translate(0 -130.176)"/><path class="b" d="M276.026,208.176a14.983,14.983,0,0,1-5.343,14.489h0l-4.277-.218-.605-3.779a8.934,8.934,0,0,0,3.844-4.562h-8.015v-5.93h14.4Z" transform="translate(-246.318 -195.995)"/><path class="c" d="M53.095,317.97h0a14.994,14.994,0,0,1-22.587-4.586l4.857-3.976a8.915,8.915,0,0,0,12.846,4.564Z" transform="translate(-28.723 -291.301)"/><path class="d" d="M51.5,3.451,46.649,7.426a8.913,8.913,0,0,0-13.141,4.667l-4.883-4h0A14.992,14.992,0,0,1,51.5,3.451Z" transform="translate(-26.948)"/></svg>