<svg id="Layer_1" data-name="Layer 1" xmlns="http://www.w3.org/2000/svg" viewBox="0 0 2551.18 708.66"><defs><style>.cls-1,.cls-4{fill:#ff8f00;}.cls-2{fill:#333;}.cls-3{fill:#fe330a;}.cls-3,.cls-4,.cls-5{fill-rule:evenodd;}.cls-5{fill:#ca0001;}</style></defs><path class="cls-1" d="M1053.8,513.87a83.25,83.25,0,0,1-25-3.68,58.66,58.66,0,0,1-20.47-11,52.72,52.72,0,0,1-13.83-18q-5.07-10.67-5.07-24.67v-.7q0-15.4,5.6-26.6a51,51,0,0,1,15.57-18.55,70,70,0,0,1,23.8-11,119.2,119.2,0,0,1,30.63-3.67,131.08,131.08,0,0,1,25,2.1,157,157,0,0,1,20.83,5.6v-3.15q0-16.8-10.15-25.55t-30.1-8.75a125.12,125.12,0,0,0-27.13,2.62,182.18,182.18,0,0,0-24.67,7.53l-13.3-40.6a208.94,208.94,0,0,1,32.2-10.85q16.8-4.2,40.6-4.2,22,0,37.62,5.42t25.73,15.58a63.05,63.05,0,0,1,15.4,25.72,111.32,111.32,0,0,1,4.9,34.13V510.37H1110.5v-20.3a73.93,73.93,0,0,1-23.45,17.32Q1073.4,513.87,1053.8,513.87Zm16.1-36.75q18.9,0,30.27-9.1a29,29,0,0,0,11.38-23.8v-9.45a81.81,81.81,0,0,0-15.58-5.08,84,84,0,0,0-18.37-1.92q-17.16,0-26.95,6.65t-9.8,19.25v.7q0,10.85,8.05,16.8T1069.9,477.12Z"/><path class="cls-2" d="M1300.89,513.87a162.18,162.18,0,0,1-55-9.63,145.28,145.28,0,0,1-49-29.57l31.85-38.15a159.92,159.92,0,0,0,34.48,21.7,92.12,92.12,0,0,0,38.67,8q16.8,0,26.08-6.13t9.27-17v-.7a21.2,21.2,0,0,0-1.93-9.28q-1.93-4-7.37-7.52a77.2,77.2,0,0,0-15.09-7q-9.64-3.5-25.09-7.35a306.44,306.44,0,0,1-33.69-10.15,94.76,94.76,0,0,1-25.62-13.83,55.83,55.83,0,0,1-16.31-20.47q-5.81-12.25-5.8-30.45v-.7a71.11,71.11,0,0,1,6.26-30.28,68.78,68.78,0,0,1,17.56-23.27,79,79,0,0,1,27-15.05,108.48,108.48,0,0,1,34.59-5.25q27,0,49.53,8.05a143.7,143.7,0,0,1,41.47,23.1l-28,40.6a177.64,177.64,0,0,0-32.2-17.68,82.41,82.41,0,0,0-31.5-6.47q-15.75,0-23.62,6.12t-7.88,15.23v.7a21.89,21.89,0,0,0,2.29,10.32q2.26,4.38,8.24,7.88a78,78,0,0,0,16.32,6.65q10.35,3.15,26.15,7.35a251.89,251.89,0,0,1,33.16,11,92.89,92.89,0,0,1,24.56,14.7,56.05,56.05,0,0,1,15.09,20.13q5.08,11.55,5.09,27.65v.7q0,18.19-6.6,32.37a66.45,66.45,0,0,1-18.43,23.8,83,83,0,0,1-28.22,14.7A122.68,122.68,0,0,1,1300.89,513.87Z"/><path class="cls-2" d="M1494.09,513.87q-30.45,0-47.07-18.55t-16.63-51.1V322.77h53.2V427.16q0,18.85,8.4,28.46t23.8,9.6q15.4,0,24.33-9.6t8.92-28.46V322.77h53.2v187.6H1549V483.55a115.38,115.38,0,0,1-10,11.46A69.94,69.94,0,0,1,1527,504.7a59.7,59.7,0,0,1-14.7,6.7A62.21,62.21,0,0,1,1494.09,513.87Z"/><path class="cls-2" d="M1649.84,322.77H1703v37.8q8-19.24,22-30.8t37.8-10.5v55.65h-2.8q-26.61,0-41.83,16.1T1703,441.07v69.3h-53.2Z"/><path class="cls-2" d="M1885,514.57a107.05,107.05,0,0,1-39-7,90.41,90.41,0,0,1-31.15-19.95A92.19,92.19,0,0,1,1794.39,457q-7.35-17.67-7.35-39.37v-.7a104.93,104.93,0,0,1,6.82-37.8A96.11,96.11,0,0,1,1812.94,348a88.94,88.94,0,0,1,66.85-28.7q23.45,0,40.6,8.4a82.53,82.53,0,0,1,28.52,22.57,94,94,0,0,1,16.8,32.55,134.56,134.56,0,0,1,5.43,38.33q0,3.15-.18,6.65t-.52,7.35H1839.89q3.84,18.19,15.92,27.47t29.93,9.28a59.39,59.39,0,0,0,23.8-4.55q10.5-4.54,21.7-14.7l30.45,26.95a94.4,94.4,0,0,1-32.2,25.72Q1910.59,514.56,1885,514.57Zm34.3-112.7q-2.46-17.85-12.6-28.88t-27-11q-16.8,0-27.13,10.85t-13.47,29.05Z"/><path class="cls-3" d="M572.8,237.46c17.32-17.54,50.16-37.57,86.14-1.57l83.9,83.9c-13.72,27-45.43,42.28-71.07,16.64l71.07,71.07,43.86-43.85h0L742.84,407.5Z"/><path class="cls-4" d="M1008.19,142.16C990.87,124.62,958,104.59,922,140.59L743.52,319.11c-18.67,18.67-43,34-71.75,17.32l71.07,71.07Z"/><path class="cls-5" d="M742.84,286.49a41.72,41.72,0,1,0-41.61-41.83,41.85,41.85,0,0,0,41.61,41.83Z"/><path class="cls-2" d="M746.41,588.13c-1.13-1.19-.74-2.35-.74-3.4,0-10.06-.09-20.13,0-30.19.13-16.75,6.82-30.31,20.22-40.41,17.86-13.47,35.81-26.82,53.72-40.23,4.35-3.25,8.71-6.49,13-9.8,22.33-17.17,35.73-39.64,39.83-67.51a109.6,109.6,0,0,0,1-15.27c.11-20.76.06-41.52,0-62.29a48.55,48.55,0,0,1,2-15.14c6.14-19.05,19.18-30.42,38.83-34.16a49.48,49.48,0,0,1,6.37-.4,27.73,27.73,0,0,1,.64,2.92,25,25,0,0,1,0,2.87c0,35.94.14,71.88,0,107.81-.19,38.91-13.77,72.67-39.9,101.44a140.67,140.67,0,0,1-19.91,17.94q-55.85,41.79-111.68,83.58C748.72,586.71,747.52,587.41,746.41,588.13Z"/><path class="cls-2" d="M564.47,269.68c4.75-.69,8.79.24,12.79,1.36a47.89,47.89,0,0,1,34.86,45.82q-.09,32.34,0,64.67A102.77,102.77,0,0,0,654,464.82q32.64,24.39,65.24,48.8a50.4,50.4,0,0,1,17.94,23.71,44.69,44.69,0,0,1,2.77,15c0,11.18,0,22.36,0,33.54a13.28,13.28,0,0,1-.26,1.85c-1.81.37-2.71-1-3.78-1.8Q717.29,572,698.7,558.07,661.86,530.5,625,502.93a149.2,149.2,0,0,1-48.71-61.69,141.33,141.33,0,0,1-11.24-44.36c-.41-4.93-.74-9.88-.75-14.82q-.09-53.42,0-106.83C564.31,273.5,564.41,271.77,564.47,269.68Z"/></svg>