<svg id="Layer_1" data-name="Layer 1" xmlns="http://www.w3.org/2000/svg" viewBox="0 0 2551.18 708.66"><defs><style>.cls-1,.cls-5{fill:#ff8f00;}.cls-2{fill:#333;}.cls-3,.cls-4{fill:#fe330a;}.cls-4,.cls-5,.cls-6{fill-rule:evenodd;}.cls-6{fill:#ca0001;}</style></defs><path class="cls-1" d="M674.88,513.87a83.14,83.14,0,0,1-25-3.68,58.71,58.71,0,0,1-20.48-11,52.82,52.82,0,0,1-13.82-18q-5.09-10.67-5.08-24.67v-.7q0-15.4,5.6-26.6a51,51,0,0,1,15.58-18.55,70,70,0,0,1,23.8-11,119.06,119.06,0,0,1,30.62-3.67,131.12,131.12,0,0,1,25,2.1,157.27,157.27,0,0,1,20.82,5.6v-3.15q0-16.8-10.15-25.55t-30.1-8.75a125,125,0,0,0-27.12,2.62,182.29,182.29,0,0,0-24.68,7.53l-13.3-40.6a209.31,209.31,0,0,1,32.2-10.85q16.8-4.2,40.6-4.2,22.05,0,37.63,5.42t25.72,15.58a63.05,63.05,0,0,1,15.4,25.72,111,111,0,0,1,4.9,34.13V510.37H731.58v-20.3a73.82,73.82,0,0,1-23.45,17.32Q694.48,513.87,674.88,513.87ZM691,477.12q18.9,0,30.28-9.1a29,29,0,0,0,11.37-23.8v-9.45a81.94,81.94,0,0,0-15.57-5.08,84.07,84.07,0,0,0-18.38-1.92q-17.14,0-26.95,6.65t-9.8,19.25v.7q0,10.85,8.05,16.8T691,477.12Z"/><path class="cls-2" d="M922,513.87a162.14,162.14,0,0,1-55-9.63,145.28,145.28,0,0,1-49-29.57l31.85-38.15a160.11,160.11,0,0,0,34.47,21.7,92.16,92.16,0,0,0,38.68,8q16.8,0,26.07-6.13t9.28-17v-.7a21.35,21.35,0,0,0-1.93-9.28q-1.94-4-7.37-7.52a77.48,77.48,0,0,0-15.09-7q-9.66-3.5-25.09-7.35a306.44,306.44,0,0,1-33.69-10.15,94.61,94.61,0,0,1-25.62-13.83,55.86,55.86,0,0,1-16.32-20.47q-5.79-12.25-5.79-30.45v-.7a71,71,0,0,1,6.26-30.28,68.78,68.78,0,0,1,17.56-23.27,78.86,78.86,0,0,1,27-15.05,108.48,108.48,0,0,1,34.59-5.25q26.94,0,49.52,8.05a143.75,143.75,0,0,1,41.48,23.1l-28,40.6a177.64,177.64,0,0,0-32.2-17.68,82.41,82.41,0,0,0-31.5-6.47q-15.75,0-23.63,6.12t-7.87,15.23v.7A22,22,0,0,0,883,341.84q2.28,4.38,8.25,7.88a77.55,77.55,0,0,0,16.32,6.65q10.35,3.15,26.14,7.35a251.4,251.4,0,0,1,33.16,11,93,93,0,0,1,24.57,14.7,56.05,56.05,0,0,1,15.09,20.13q5.09,11.55,5.09,27.65v.7q0,18.19-6.61,32.37a66.34,66.34,0,0,1-18.43,23.8,82.9,82.9,0,0,1-28.22,14.7A122.61,122.61,0,0,1,922,513.87Z"/><path class="cls-2" d="M1115.18,513.87q-30.45,0-47.08-18.55t-16.62-51.1V322.77h53.2V427.16q0,18.85,8.4,28.46t23.8,9.6q15.39,0,24.32-9.6t8.93-28.46V322.77h53.2v187.6h-53.2V483.55a115.49,115.49,0,0,1-10,11.46,69.87,69.87,0,0,1-12.07,9.69,60,60,0,0,1-14.7,6.7A62.26,62.26,0,0,1,1115.18,513.87Z"/><path class="cls-2" d="M1270.92,322.77h53.2v37.8q8.06-19.24,22.05-30.8t37.8-10.5v55.65h-2.8q-26.6,0-41.82,16.1t-15.23,50.05v69.3h-53.2Z"/><path class="cls-2" d="M1506.12,514.57a107,107,0,0,1-39-7A90.41,90.41,0,0,1,1436,487.62,92.22,92.22,0,0,1,1415.47,457q-7.35-17.67-7.35-39.37v-.7a104.93,104.93,0,0,1,6.83-37.8A96.09,96.09,0,0,1,1434,348a89,89,0,0,1,66.85-28.7q23.45,0,40.6,8.4A82.66,82.66,0,0,1,1570,350.24a94,94,0,0,1,16.8,32.55,134.91,134.91,0,0,1,5.42,38.33q0,3.15-.17,6.65t-.53,7.35H1461q3.85,18.19,15.93,27.47t29.92,9.28a59.44,59.44,0,0,0,23.81-4.55q10.5-4.54,21.69-14.7l30.45,26.95a94.4,94.4,0,0,1-32.2,25.72Q1531.67,514.56,1506.12,514.57Zm34.3-112.7Q1538,384,1527.82,373t-27-11q-16.8,0-27.12,10.85t-13.48,29.05Z"/><path class="cls-3" d="M1756.37,514.57q-28.35,0-52.15-10a129.57,129.57,0,0,1-41.12-26.95,120.34,120.34,0,0,1-26.95-39.9,125.63,125.63,0,0,1-9.63-49.17v-.7a123.88,123.88,0,0,1,9.8-49.18,125.35,125.35,0,0,1,68.43-67.55q24-10,52.32-10t52.15,10a129.78,129.78,0,0,1,41.13,26.95,120.69,120.69,0,0,1,27,39.9,125.89,125.89,0,0,1,9.62,49.18v.7a123.8,123.8,0,0,1-9.8,49.17,125.29,125.29,0,0,1-68.42,67.55Q1784.72,514.57,1756.37,514.57Zm.7-49.7a73.6,73.6,0,0,0,29.75-5.95,68.1,68.1,0,0,0,23.28-16.45,77.71,77.71,0,0,0,15.05-24.33,80.32,80.32,0,0,0,5.42-29.57v-.7a81.73,81.73,0,0,0-5.42-29.75,73.43,73.43,0,0,0-39-41.13,71.89,71.89,0,0,0-29.75-6.12,73.19,73.19,0,0,0-29.92,5.95,68.35,68.35,0,0,0-23.1,16.45,77.41,77.41,0,0,0-15,24.32,80.21,80.21,0,0,0-5.43,29.58v.7a81.53,81.53,0,0,0,5.43,29.75,73.85,73.85,0,0,0,38.85,41.12A71.34,71.34,0,0,0,1757.07,464.87Z"/><path class="cls-3" d="M1991.92,315.07h-74.55v-49.7h203v49.7h-74.55v195.3h-53.9Z"/><path class="cls-3" d="M2161.67,265.37h100.1q22,0,39.37,6.12a83.61,83.61,0,0,1,29.4,17.33,75.74,75.74,0,0,1,18.55,26.77,89,89,0,0,1,6.48,34.48v.7q0,21.35-7.7,37.45a76.54,76.54,0,0,1-21.18,26.95,91.68,91.68,0,0,1-31.5,16.27,133.47,133.47,0,0,1-38.67,5.43h-40.95v73.5h-53.9Zm96.6,123.55q20.28,0,31.5-10.68a35,35,0,0,0,11.2-26.42v-.7q0-18.19-11.73-27.65t-32-9.45h-41.65v74.9Z"/><path class="cls-4" d="M193.88,237.46c17.33-17.54,50.17-37.57,86.15-1.57l83.9,83.9c-13.72,27-45.43,42.28-71.07,16.64l71.07,71.07,43.86-43.85h0L363.93,407.5Z"/><path class="cls-5" d="M629.27,142.16c-17.31-17.54-50.16-37.57-86.14-1.57L364.6,319.11c-18.66,18.67-43,34-71.74,17.32l71.07,71.07Z"/><path class="cls-6" d="M363.93,286.49a41.72,41.72,0,1,0-41.61-41.83,41.85,41.85,0,0,0,41.61,41.83Z"/><path class="cls-2" d="M367.23,588.13c-1.13-1.19-.74-2.35-.74-3.4,0-10.06-.09-20.13,0-30.19.13-16.75,6.82-30.31,20.22-40.41,17.86-13.47,35.81-26.82,53.72-40.23,4.35-3.25,8.71-6.49,13-9.8,22.33-17.17,35.73-39.64,39.83-67.51a109.6,109.6,0,0,0,1-15.27c.11-20.76.06-41.52,0-62.29a48.55,48.55,0,0,1,2-15.14c6.14-19.05,19.18-30.42,38.83-34.16a49.48,49.48,0,0,1,6.37-.4,27.73,27.73,0,0,1,.64,2.92,25,25,0,0,1,0,2.87c0,35.94.14,71.88,0,107.81-.19,38.91-13.77,72.67-39.9,101.44a140.67,140.67,0,0,1-19.91,17.94q-55.85,41.79-111.68,83.58C369.54,586.71,368.34,587.41,367.23,588.13Z"/><path class="cls-2" d="M185.29,269.68c4.75-.69,8.79.24,12.79,1.36a47.88,47.88,0,0,1,34.86,45.82q-.09,32.34,0,64.67a102.77,102.77,0,0,0,41.87,83.29q32.64,24.39,65.24,48.8A50.4,50.4,0,0,1,358,537.33a44.69,44.69,0,0,1,2.77,15c.05,11.18,0,22.36,0,33.54a13.28,13.28,0,0,1-.26,1.85c-1.81.37-2.71-1-3.78-1.8Q338.11,572,319.52,558.07q-36.84-27.57-73.67-55.14a149.2,149.2,0,0,1-48.71-61.69,141.33,141.33,0,0,1-11.24-44.36c-.41-4.93-.74-9.88-.74-14.82q-.1-53.42,0-106.83C185.13,273.5,185.23,271.77,185.29,269.68Z"/></svg>