<svg xmlns="http://www.w3.org/2000/svg" viewBox="0 0 100 60.923"><defs></defs><g class="a"><path class="b" d="M123.385,54.154h-7.692V52.615a4.615,4.615,0,1,0-9.231,0v1.538h-6.154V52.615a4.615,4.615,0,0,0-9.231,0v1.538H84.923V52.615a4.615,4.615,0,0,0-9.231,0v1.538H68V52.615a4.615,4.615,0,0,0-9.231,0v1.538H52.615A4.621,4.621,0,0,0,48,58.769v61.538a4.621,4.621,0,0,0,4.615,4.615h70.769A4.621,4.621,0,0,0,128,120.308V58.769a4.621,4.621,0,0,0-4.615-4.615Zm-13.846-1.538a1.538,1.538,0,1,1,3.077,0v6.154a1.538,1.538,0,1,1-3.077,0Zm-15.385,0a1.538,1.538,0,0,1,3.077,0v6.154a1.538,1.538,0,1,1-3.077,0Zm-15.385,0a1.538,1.538,0,0,1,3.077,0v6.154a1.538,1.538,0,1,1-3.077,0Zm-16.923,0a1.538,1.538,0,0,1,3.077,0v6.154a1.538,1.538,0,0,1-3.077,0Zm63.077,67.692a1.539,1.539,0,0,1-1.538,1.538H52.615a1.539,1.539,0,0,1-1.538-1.538V69.538h73.846Zm0-53.846H51.077V58.769a1.539,1.539,0,0,1,1.538-1.538h6.154v1.538a4.615,4.615,0,1,0,9.231,0V57.231h7.692v1.538a4.615,4.615,0,1,0,9.231,0V57.231h6.154v1.538a4.615,4.615,0,1,0,9.231,0V57.231h6.154v1.538a4.615,4.615,0,1,0,9.231,0V57.231h7.692a1.539,1.539,0,0,1,1.538,1.538Z" transform="translate(-48 -48)"/><path class="b" d="M169.851,226.21a1.685,1.685,0,0,0,1.561-1.8,15.183,15.183,0,1,1,7.864,12.238l3.1-3.5a1.688,1.688,0,0,0-.955-2.777l-9.668-1.8a1.686,1.686,0,0,0-1.97,1.947l1.845,10.641a1.686,1.686,0,0,0,2.925.83l2.438-2.755a18.559,18.559,0,1,0-8.938-14.584,1.658,1.658,0,0,0,1.8,1.562Zm4.5,10.914-.83-4.794,4.355.812Z" transform="translate(-146.554 -177.665)"/><path class="b" d="M249.733,236.82a1.686,1.686,0,0,0-1.686,1.686v10.119a1.686,1.686,0,0,0,.675,1.349l6.746,5.059a1.686,1.686,0,1,0,2.023-2.7l-6.072-4.553v-9.276A1.687,1.687,0,0,0,249.733,236.82Z" transform="translate(-210.059 -201.494)"/><path class="b" d="M336,384h3.373v3.373H336Z" transform="translate(-280.829 -320.569)"/><path class="b" d="M368,384h3.373v3.373H368Z" transform="translate(-306.698 -320.569)"/><path class="b" d="M400,384h3.373v3.373H400Z" transform="translate(-333.492 -320.569)"/></g></svg>