<svg xmlns="http://www.w3.org/2000/svg" width="13.56" height="18.083" viewBox="0 0 13.56 18.083"><defs></defs><path class="a" d="M5.615,11.768,4.22,10.374a.424.424,0,0,0-.6,0L2.242,11.751l-.018,3.973h9.04V10.638L9.3,8.679a.424.424,0,0,0-.6,0ZM9,9.978l1.13,1.13v3.485H3.358l.011-2.373.551-.551,1.695,1.695ZM4.485,8.943a2.26,2.26,0,1,0-2.26-2.26A2.262,2.262,0,0,0,4.485,8.943Zm0-3.39a1.13,1.13,0,1,1-1.13,1.13A1.133,1.133,0,0,1,4.485,5.553Zm8.577-2.193L10.1.4A1.7,1.7,0,0,0,8.9-.1H1.695A1.7,1.7,0,0,0,0,1.6v14.69a1.7,1.7,0,0,0,1.695,1.695h10.17a1.7,1.7,0,0,0,1.695-1.695V4.561a1.7,1.7,0,0,0-.5-1.2ZM9.04,1.051A.556.556,0,0,1,9.3,1.2l2.963,2.963a.556.556,0,0,1,.148.261H9.04Zm3.39,15.237a.567.567,0,0,1-.565.565H1.695a.567.567,0,0,1-.565-.565V1.6a.567.567,0,0,1,.565-.565H7.91V4.706a.845.845,0,0,0,.847.847H12.43Z" transform="translate(0 0.1)"/></svg>