<svg xmlns="http://www.w3.org/2000/svg" width="30" height="24" viewBox="0 0 30 24"><defs></defs><path class="a" d="M29.625,10.5H25.5V6.375A.376.376,0,0,0,25.125,6h-.75A.376.376,0,0,0,24,6.375V10.5H19.875a.376.376,0,0,0-.375.375v.75a.376.376,0,0,0,.375.375H24v4.125a.376.376,0,0,0,.375.375h.75a.376.376,0,0,0,.375-.375V12h4.125A.376.376,0,0,0,30,11.625v-.75A.376.376,0,0,0,29.625,10.5ZM14.7,13.5c-1.345,0-1.992.75-4.2.75s-2.85-.75-4.2-.75A6.3,6.3,0,0,0,0,19.8v1.95A2.251,2.251,0,0,0,2.25,24h16.5A2.251,2.251,0,0,0,21,21.75V19.8A6.3,6.3,0,0,0,14.7,13.5Zm4.8,8.25a.752.752,0,0,1-.75.75H2.25a.752.752,0,0,1-.75-.75V19.8A4.8,4.8,0,0,1,6.3,15c.919,0,1.833.75,4.2.75S13.781,15,14.7,15a4.8,4.8,0,0,1,4.8,4.8ZM10.5,12a6,6,0,1,0-6-6A6,6,0,0,0,10.5,12Zm0-10.5A4.5,4.5,0,1,1,6,6,4.507,4.507,0,0,1,10.5,1.5Z"/></svg>