<svg xmlns="http://www.w3.org/2000/svg" width="576.006" height="110.023" viewBox="0 0 576.006 110.023"><defs><style>.a{fill:#ffcd00;}.b{fill:#76bc21;}.c{fill:#ffa400;}.d{fill:#232020;}.e{fill:#a7a8a9;}.f{fill:#ff9700;}.f,.g,.i{fill-rule:evenodd;}.g{fill:#55bc9f;}.h{fill:#e9b840;}.i{fill:#fff;}</style></defs><g transform="translate(-117.371 -361.651)"><path class="a" d="M16.006,51.052c21.307,5.061,41.477,1.342,61.748-8.342C84.273,54.7,91.128,66.2,89.2,80.264c-1.823,13.242-12.221,18.872-24.72,14.2-16.042-5.965-28.06-17.355-39.2-29.8-3.528-3.928-11.87-14.239-11.87-14.239Z" transform="translate(119.147 375.588)"/><path class="b" d="M82.239,83.616C75.924,62.63,62.58,47.069,44,34.4,51.088,22.733,57.592,11.066,70.732,5.64,83.085.575,93.148,6.7,95.423,19.884c2.917,16.917-.933,32.989-6.1,48.871-1.575,5.017-6.271,17.384-6.271,17.384Z" transform="translate(133.169 357.782)"/><path class="c" d="M73.092,7.291c-15.211,15.751-22.3,34.987-24.311,57.315-13.636-.51-27.039-.467-38.152-9.3C.172,47.106.61,35.263,11.023,26.834,24.367,16.042,40.264,11.564,56.656,8.327,61.833,7.306,74.915,5.41,74.915,5.41Z" transform="translate(114.374 358.49)"/><path class="d" d="M94.129,39.181a17.005,17.005,0,0,1,7.482-8.532,22.43,22.43,0,0,1,11.944-3.529h30.933c1.108,0,1.663.408,1.663,1.21a2.815,2.815,0,0,1-.233,1.05l-.554,1.458A3.048,3.048,0,0,1,142.3,33.1H111.4a11.244,11.244,0,0,0-5.979,1.75,8.532,8.532,0,0,0-3.806,4.331l-2.2,6.023h32.406c1.094,0,1.648.408,1.648,1.21a3.4,3.4,0,0,1-.2,1.05l-.54,1.458a3.121,3.121,0,0,1-3.106,2.261H97.236L91.4,67.007a3.048,3.048,0,0,1-2.917,2.319h-3.06c-1.108,0-1.663-.408-1.663-1.21a3.077,3.077,0,0,1,.219-1.05Z" transform="translate(151.395 368.441)"/><path class="d" d="M128.7,67.066a3.048,3.048,0,0,1-3.077,2.261h-3c-1.108,0-1.663-.408-1.663-1.21a3.077,3.077,0,0,1,.219-1.05l13.709-37.685a3.092,3.092,0,0,1,3.106-2.261h3c1.108,0,1.663.408,1.663,1.21a2.815,2.815,0,0,1-.233,1.05Z" transform="translate(168.447 368.44)"/><path class="d" d="M143.751,69.326q-6.227,0-9.377-3.529a7.409,7.409,0,0,1-1.983-5.075,10.3,10.3,0,0,1,.656-3.456l6.607-18.084a16.961,16.961,0,0,1,7.511-8.532,22.342,22.342,0,0,1,11.93-3.529h30.889c1.108,0,1.663.408,1.663,1.21a3.077,3.077,0,0,1-.219,1.05l-.54,1.458a3.048,3.048,0,0,1-3.077,2.261H156.92a11.244,11.244,0,0,0-5.979,1.75,8.531,8.531,0,0,0-3.748,4.273l-6.621,18.142a5.089,5.089,0,0,0-.335,1.75,3.631,3.631,0,0,0,1.006,2.494,5.834,5.834,0,0,0,4.7,1.779h25.624l4.448-12.236L173.3,47.465a3.048,3.048,0,0,1,3.077-2.261H183.4c1.094,0,1.648.408,1.648,1.21a3.4,3.4,0,0,1-.2,1.05l-7.146,19.6a3.048,3.048,0,0,1-3.077,2.261Z" transform="translate(173.687 368.441)"/><path class="e" d="M197.138,45.381a5,5,0,0,0,.335-1.75,3.777,3.777,0,0,0-.963-2.538,5.979,5.979,0,0,0-4.7-1.735,11.215,11.215,0,0,0-5.979,1.75,8.5,8.5,0,0,0-3.763,4.273L175.2,64.223a3.048,3.048,0,0,1-3.077,2.261h-3c-1.108,0-1.663-.408-1.663-1.21a3.4,3.4,0,0,1,.2-1.05l6.884-18.842a16.932,16.932,0,0,1,7.5-8.532,22.372,22.372,0,0,1,11.93-3.529q6.257,0,9.407,3.529a4.555,4.555,0,0,1,.423.54l.875-.54a22.211,22.211,0,0,1,11.9-3.529q6.257,0,9.377,3.529a7.394,7.394,0,0,1,1.983,5.061,10.31,10.31,0,0,1-.656,3.471l-6.869,18.842a3.063,3.063,0,0,1-3.077,2.261h-3c-1.108,0-1.663-.408-1.663-1.21a3.4,3.4,0,0,1,.2-1.05l6.869-18.842a5,5,0,0,0,.335-1.75,3.777,3.777,0,0,0-.963-2.538,5.979,5.979,0,0,0-4.7-1.735,11.3,11.3,0,0,0-5.994,1.75,8.532,8.532,0,0,0-3.719,4.273l-6.869,18.842a3.048,3.048,0,0,1-3.077,2.261h-3.019c-1.094,0-1.648-.408-1.648-1.21a3.4,3.4,0,0,1,.2-1.05Z" transform="translate(189.763 371.283)"/><path class="e" d="M255.377,29.381a3.063,3.063,0,0,1,3.077-2.261h3c1.108,0,1.663.408,1.663,1.21a3.4,3.4,0,0,1-.2,1.05L252.708,57.266a16.99,16.99,0,0,1-7.5,8.532,22.386,22.386,0,0,1-11.944,3.529H221.221c-4.156,0-7.292-1.181-9.377-3.529a7.409,7.409,0,0,1-1.983-5.075,10.3,10.3,0,0,1,.656-3.456l3.311-9.042a17.034,17.034,0,0,1,7.511-8.532,22.342,22.342,0,0,1,11.93-3.529H252.9ZM250.71,42.2h-19.6a11.2,11.2,0,0,0-5.965,1.75,8.575,8.575,0,0,0-3.733,4.273L218.1,57.266a5.089,5.089,0,0,0-.335,1.75,3.69,3.69,0,0,0,1.05,2.494,5.834,5.834,0,0,0,4.7,1.779h12.061a11.055,11.055,0,0,0,5.965-1.765,8.517,8.517,0,0,0,3.748-4.259Z" transform="translate(209.199 368.44)"/><path class="f" d="M107,562s27.08,28.294,72.651,28.294c50.788,0,72.28-28.294,72.28-28.294s-23.285,22.858-72.28,22.858C135.254,584.858,107,562,107,562Z" transform="translate(381.893 -123.732)"/><path class="g" d="M96.03,215.052l.647-3.335c1.147-5.915-3.452-8.81-10.5-8.81-13.152,0-23.843,9.376-26.417,22.654-2.5,12.9,5.656,21.458,17.109,21.458,5.978,0,13.325-2.517,14.472-8.432l.622-3.209h-.315c-2.8,2.454-7.916,4.153-12.195,4.153-8.118,0-12.73-5.1-10.765-15.228,1.623-8.369,8.423-13.907,16.1-13.907,3.713,0,8.9,1.133,10.927,4.657h.315Zm27.562,20.011,1.513-7.8c2.269-11.7-3.843-15.228-11.4-15.228-8.936,0-13.212,4.531-13.944,8.306l-.525,2.706h.315c1.564-1.573,5.413-3.9,11.517-3.9,5.034,0,7.019,1.447,6.091,6.23l-.085.441h-2.957c-12.46,0-17.755,4.594-18.927,10.635-1.208,6.23,3.451,10.761,11.506,10.761h1.7a15.113,15.113,0,0,0,15.191-12.152Zm-8.256.063c-.671,3.461-2.775,5.223-6.425,5.223-3.713,0-5.548-1.573-5.035-4.216.537-2.769,2.655-4.279,9.073-4.279h3.02ZM152.56,220.9l.586-3.02c.5-2.58-.751-5.538-5.974-5.538-8.936,0-13.779,6.481-15.1,13.278l-3.026,15.606c-.683,3.524,1.342,5.412,5.118,5.412h2.328l3.783-19.507c1-5.16,3.48-7.237,7.255-7.237a10.825,10.825,0,0,1,4.713,1.007h.315Zm32.532,4.153c1.574-8.118-3.995-13.152-11.042-13.152-9.691,0-17.992,7.111-20.188,18.438-2.013,10.383,4.937,17.053,13.369,17.053,9.313,0,12.917-3.335,13.759-7.677l.513-2.643h-.314c-3.194,2.517-7.482,3.209-11.006,3.209-4.971,0-8.348-2.706-8.148-6.985h5.538c11.2,0,16.311-2.014,17.519-8.244Zm-7.733-1.007c-.463,2.391-2.46,3.272-10.451,3.272h-3.775l.283-1.133c.945-3.9,4.423-7.237,8.514-7.237,3.9,0,6.089,1.7,5.43,5.1Z" transform="translate(423.693 190.993)"/><path class="g" d="M1160.074,53.438a39.634,39.634,0,1,1-39.634,39.634A39.634,39.634,0,0,1,1160.074,53.438Zm.285,11.051a28.487,28.487,0,1,1-28.487,28.487A28.487,28.487,0,0,1,1160.359,64.489Z" transform="translate(-506.331 321.994)"/><circle class="h" cx="22.147" cy="22.147" r="22.147" transform="translate(631.909 393.541)"/><path class="i" d="M1342.771,487.641s-6.217,2.627-11.927,1.826c-5.23-.733-9.992-4.9-9.992-4.9l-.119-.117s-3.424-1.006.164.056c12.233,3.623,19.509-1.683,19.509-1.683Z" transform="translate(-680.585 -54.341)"/></g></svg>