<svg id="Layer_1" data-name="Layer 1" xmlns="http://www.w3.org/2000/svg" width="48px" height="48px" viewBox="0 0 48 48">
    <g id="mic">
        <circle id="Ellipse_386" data-name="Ellipse 386" cx="24.22" cy="24.01" r="23.78" opacity="0.5"/>
        <path id="Path_1206" data-name="Path 1206"
              d="M24.23,29.3a5.22,5.22,0,0,0,5.22-5.22v-8.7A5.22,5.22,0,1,0,19,15.1v9A5.22,5.22,0,0,0,24.23,29.3ZM20.75,15.38a3.48,3.48,0,1,1,7,0v8.7a3.48,3.48,0,1,1-7,0ZM32.49,20.6h-.87a.44.44,0,0,0-.43.44v3a7,7,0,0,1-7,7h-.46a7.12,7.12,0,0,1-6.48-7.19V21a.44.44,0,0,0-.44-.44H16a.44.44,0,0,0-.43.44v2.73a8.92,8.92,0,0,0,7.83,9v3.54H19.44a.44.44,0,0,0-.43.44h0v.87a.43.43,0,0,0,.43.43H29a.43.43,0,0,0,.43-.43h0V36.7a.44.44,0,0,0-.43-.44H25.09V32.73a8.71,8.71,0,0,0,7.83-8.65V21a.44.44,0,0,0-.43-.44Z"
              fill="#fff"/>
    </g>
</svg>
