<svg id="Layer_1" data-name="Layer 1" xmlns="http://www.w3.org/2000/svg" width="48px" height="48px" viewBox="0 0 48 48">
    <g id="mic">
        <circle id="Ellipse_386" data-name="Ellipse 386" cx="24.22" cy="24.01" r="23.78" fill="red" opacity="0.5"/>
        <path id="mic-2" data-name="mic"
              d="M21.77,15.38a3.49,3.49,0,1,1,7,0v8.14l1.67,1.31a4.51,4.51,0,0,0,.07-.73V15.38a5.23,5.23,0,1,0-10.46,0h0v1.27L21.77,18ZM34,24.1V21.05a.44.44,0,0,0-.43-.44h-.87a.44.44,0,0,0-.44.44v3A6.6,6.6,0,0,1,31.93,26l1.48,1.16A8.55,8.55,0,0,0,34,24.09ZM30.06,36.31H26.13V32.77a8.81,8.81,0,0,0,4-1.49l-1.44-1.14a6.92,6.92,0,0,1-3.92.92,7.15,7.15,0,0,1-6.51-7.21V21.93l-1.55-1.22a.41.41,0,0,0-.2.33v2.74a8.94,8.94,0,0,0,7.85,9v3.57H20.46a.44.44,0,0,0-.44.43v.88a.44.44,0,0,0,.44.43h9.59a.44.44,0,0,0,.44-.43v-.88a.43.43,0,0,0-.43-.43Zm-4.8-7A5.16,5.16,0,0,0,27.2,29l-1.76-1.38h-.18a3.47,3.47,0,0,1-3.42-2.85L20,23.31v.79a5.23,5.23,0,0,0,5.23,5.23Zm17.28,7.26L9.07,10.24a.43.43,0,0,0-.6.06h0L7.91,11A.43.43,0,0,0,8,11.6H8L41.45,38a.43.43,0,0,0,.61-.07h0l.55-.68a.44.44,0,0,0-.06-.61Z"
              fill="#fff"/>
    </g>
</svg>
