<svg xmlns="http://www.w3.org/2000/svg" width="21.053" height="24.06" viewBox="0 0 21.053 24.06"><defs></defs><path class="a" d="M12.782,16.541H11.654V.752A.754.754,0,0,0,10.9,0H10.15A.754.754,0,0,0,9.4.752v15.79H8.271a.754.754,0,0,0-.752.752v1.5a.754.754,0,0,0,.752.752H9.4v3.759a.754.754,0,0,0,.752.752H10.9a.754.754,0,0,0,.752-.752V19.549h1.128a.754.754,0,0,0,.752-.752v-1.5A.754.754,0,0,0,12.782,16.541ZM5.263,4.511H4.135V.752A.754.754,0,0,0,3.383,0H2.632A.754.754,0,0,0,1.88.752V4.511H.752A.754.754,0,0,0,0,5.263v1.5a.754.754,0,0,0,.752.752H1.88v15.79a.754.754,0,0,0,.752.752h.752a.754.754,0,0,0,.752-.752V7.519H5.263a.754.754,0,0,0,.752-.752v-1.5A.754.754,0,0,0,5.263,4.511ZM20.3,10.526H19.173V.752A.754.754,0,0,0,18.421,0h-.752a.754.754,0,0,0-.752.752v9.774H15.79a.754.754,0,0,0-.752.752v1.5a.754.754,0,0,0,.752.752h1.128v9.774a.754.754,0,0,0,.752.752h.752a.754.754,0,0,0,.752-.752V13.534H20.3a.754.754,0,0,0,.752-.752v-1.5A.754.754,0,0,0,20.3,10.526Z"/></svg>