<svg xmlns="http://www.w3.org/2000/svg" width="24.23" height="24.262" viewBox="0 0 18.23 24.262"><defs></defs><path class="a" d="M12.889,16.68H11.752V.758A.76.76,0,0,0,10.994,0h-.758a.76.76,0,0,0-.758.758V16.68H8.34a.76.76,0,0,0-.758.758v1.516a.76.76,0,0,0,.758.758H9.478V23.5a.76.76,0,0,0,.758.758h.758a.76.76,0,0,0,.758-.758V19.713h1.137a.76.76,0,0,0,.758-.758V17.439A.76.76,0,0,0,12.889,16.68ZM5.307,4.549H4.17V.758A.76.76,0,0,0,3.412,0H2.654A.76.76,0,0,0,1.9.758V4.549H.758A.76.76,0,0,0,0,5.307V6.824a.76.76,0,0,0,.758.758H1.9V23.5a.76.76,0,0,0,.758.758h.758A.76.76,0,0,0,4.17,23.5V7.582H5.307a.76.76,0,0,0,.758-.758V5.307A.76.76,0,0,0,5.307,4.549Zm15.164,6.066H19.334V.758A.76.76,0,0,0,18.576,0h-.758a.76.76,0,0,0-.758.758v9.857H15.922a.76.76,0,0,0-.758.758v1.516a.76.76,0,0,0,.758.758H17.06V23.5a.76.76,0,0,0,.758.758h.758a.76.76,0,0,0,.758-.758V13.648h1.137a.76.76,0,0,0,.758-.758V11.373A.76.76,0,0,0,20.471,10.615Z"/></svg>