<svg xmlns="http://www.w3.org/2000/svg" viewBox="0 0 18.56 24.083"><defs></defs><path class="a" d="M13.062,3.361,10.1.4A1.7,1.7,0,0,0,8.9-.1H1.695A1.7,1.7,0,0,0,0,1.6v14.69a1.7,1.7,0,0,0,1.695,1.695h10.17a1.7,1.7,0,0,0,1.695-1.695V4.561A1.7,1.7,0,0,0,13.062,3.361Zm-.8.8a.556.556,0,0,1,.148.261H9.04V1.051A.556.556,0,0,1,9.3,1.2Zm-.4,12.691H1.695a.567.567,0,0,1-.565-.565V1.6a.567.567,0,0,1,.565-.565H7.91V4.706a.845.845,0,0,0,.847.847H12.43V16.288A.567.567,0,0,1,11.865,16.853Zm-.777-6.045c-.477-.47-1.942-.325-2.6-.237a3.7,3.7,0,0,1-1.593-2,5.16,5.16,0,0,0,.226-2.292.826.826,0,0,0-1.575-.24,5.94,5.94,0,0,0,.3,2.747,34,34,0,0,1-1.487,3.129c-.734.378-1.91,1.035-2.076,1.85-.124.593.809,1.391,1.875.226a9.449,9.449,0,0,0,1.105-1.607,20.528,20.528,0,0,1,2.9-.847,5.387,5.387,0,0,0,2.281.7.856.856,0,0,0,.653-1.434ZM2.994,13.951A4.932,4.932,0,0,1,4.248,12.51C3.468,13.756,2.994,13.975,2.994,13.951ZM6.356,6.1c.307,0,.275,1.324.074,1.681A3.431,3.431,0,0,1,6.356,6.1Zm-1,5.625A16.563,16.563,0,0,0,6.37,9.477,4.6,4.6,0,0,0,7.61,10.942,12.908,12.908,0,0,0,5.353,11.726Zm5.417-.208s-.2.247-1.536-.321C10.682,11.09,10.919,11.422,10.77,11.518Z" transform="translate(0 0.1)"/></svg>