<svg xmlns="http://www.w3.org/2000/svg" viewBox="0 0 100 60.923">
  <g id="Outline" transform="translate(31.187)">
    <path id="Path_2062" data-name="Path 2062" d="M167.175,21.016h-2.508V19.762a3.762,3.762,0,1,0-7.524,0v1.254h-5.016V19.762a3.762,3.762,0,1,0-7.524,0v1.254h-5.016V19.762a3.762,3.762,0,1,0-7.524,0v1.254h-5.016V19.762a3.762,3.762,0,1,0-7.524,0v1.254h-2.508A5.022,5.022,0,0,0,112,26.032V48.6h2.508V37.318h55.175V59.89h-7.524a5.022,5.022,0,0,0-5.016,5.016v7.524H139.588v2.508h27.588a4.983,4.983,0,0,0,2.508-.675v.675a2.511,2.511,0,0,1-2.508,2.508H138.334v2.508h28.842a4.984,4.984,0,0,0,2.508-.675v.675a2.511,2.511,0,0,1-2.508,2.508h-31.35v2.508h31.35a5.022,5.022,0,0,0,5.016-5.016V26.032a5.022,5.022,0,0,0-5.016-5.016Zm-7.524-1.254a1.254,1.254,0,1,1,2.508,0v5.016a1.254,1.254,0,1,1-2.508,0Zm-12.54,0a1.254,1.254,0,0,1,2.508,0v5.016a1.254,1.254,0,0,1-2.508,0Zm-12.54,0a1.254,1.254,0,0,1,2.508,0v5.016a1.254,1.254,0,0,1-2.508,0Zm-12.54,0a1.254,1.254,0,1,1,2.508,0v5.016a1.254,1.254,0,1,1-2.508,0ZM114.508,34.81V26.032a2.511,2.511,0,0,1,2.508-2.508h2.508v1.254a3.762,3.762,0,1,0,7.524,0V23.524h5.016v1.254a3.762,3.762,0,1,0,7.524,0V23.524H144.6v1.254a3.762,3.762,0,1,0,7.524,0V23.524h5.016v1.254a3.762,3.762,0,1,0,7.524,0V23.524h2.508a2.511,2.511,0,0,1,2.508,2.508V34.81Zm45.143,30.1a2.511,2.511,0,0,1,2.508-2.508h5.751l-8.259,8.259Zm7.524,7.524h-5.751l8.259-8.259v5.751a2.511,2.511,0,0,1-2.508,2.508Z" transform="translate(-123.343 -16)" />
    <path id="Path_2065" data-name="Path 2065" d="M232,184h2.508v2.508H232Z" transform="translate(-224.533 -157.666)" />
    <path id="Path_2066" data-name="Path 2066" d="M168,184h2.508v2.508H168Z" transform="translate(-170.565 -157.666)" />
    <path id="Path_2067" data-name="Path 2067" d="M360,184h2.508v2.508H360Z" transform="translate(-332.469 -157.666)" />
    <path id="Path_2068" data-name="Path 2068" d="M424,184h2.508v2.508H424Z" transform="translate(-386.437 -157.666)" />
    <path id="Path_2069" data-name="Path 2069" d="M296,184h2.508v2.508H296Z" transform="translate(-278.501 -157.666)" />
    <path id="Path_2070" data-name="Path 2070" d="M232,248h2.508v2.508H232Z" transform="translate(-224.533 -211.635)" />
    <path id="Path_2071" data-name="Path 2071" d="M360,248h2.508v2.508H360Z" transform="translate(-332.469 -211.635)" />
    <path id="Path_2072" data-name="Path 2072" d="M424,248h2.508v2.508H424Z" transform="translate(-386.437 -211.635)" />
    <path id="Path_2073" data-name="Path 2073" d="M296,248h2.508v2.508H296Z" transform="translate(-278.501 -211.635)" />
    <path id="Path_2074" data-name="Path 2074" d="M360,312h2.508v2.508H360Z" transform="translate(-332.469 -265.603)" />
    <path id="Path_2075" data-name="Path 2075" d="M296,312h2.508v2.508H296Z" transform="translate(-278.501 -265.603)" />
    <path id="Path_2100" data-name="Path 2100" d="M273.193,267.444a21.215,21.215,0,0,0-15.621,35.571l1.915-1.761a18.619,18.619,0,1,1,1.76,1.68l-1.672,1.993a21.216,21.216,0,1,0,13.618-37.484Z" transform="translate(-283.163 -231.264)"/>
    <path id="Path_2101" data-name="Path 2101" d="M366.358,306.973v16.938h12.165v-2.6h-9.564V306.973Z" transform="translate(-377.709 -263.939)"/>
    <g id="Group_1746" data-name="Group 1746" transform="translate(-25.006 57.371)">
      <path id="Path_2098" data-name="Path 2098" d="M287.618,389.649h2.6v2.6h-2.6Z" transform="translate(-287.618 -389.649)"/>
    </g>
    <g id="Group_1747" data-name="Group 1747" transform="translate(-11.252 69.968)">
      <path id="Path_2099" data-name="Path 2099" d="M366.931,462.292h2.6v2.6h-2.6Z" transform="translate(-366.931 -462.292)"/>
    </g>
  </g>
</svg>
