<svg xmlns="http://www.w3.org/2000/svg" width="24" height="24" viewBox="0 0 24 24"><defs><style>.a{opacity:0.3;}</style></defs><path class="a" d="M23.114,16.472l-5.081-2.18a1.47,1.47,0,0,0-1.711.417l-2.067,2.527A16.406,16.406,0,0,1,6.773,9.755L9.3,7.688a1.47,1.47,0,0,0,.417-1.71L7.537.891A1.469,1.469,0,0,0,5.859.043L1.134,1.135A1.455,1.455,0,0,0,0,2.56,21.441,21.441,0,0,0,21.445,24a1.464,1.464,0,0,0,1.43-1.139l1.087-4.72a1.463,1.463,0,0,0-.848-1.673Zm-1.7,6.033A19.934,19.934,0,0,1,1.5,2.593L6.173,1.515,8.33,6.549,4.917,9.338a18.113,18.113,0,0,0,9.755,9.755l2.789-3.413,5.034,2.156Z" transform="translate(0 -0.005)"/></svg>