<svg xmlns="http://www.w3.org/2000/svg" width="32" height="24" viewBox="0 0 35 24"><defs></defs><path class="a" d="M6.938,9H5.063a.563.563,0,0,0-.562.563v1.875A.563.563,0,0,0,5.063,12H6.938a.563.563,0,0,0,.563-.562V9.563A.563.563,0,0,0,6.938,9Zm0,4.5H5.063a.563.563,0,0,0-.562.563v1.875a.563.563,0,0,0,.563.563H6.938a.563.563,0,0,0,.563-.562V14.063A.563.563,0,0,0,6.938,13.5Zm0,4.5H5.063a.563.563,0,0,0-.562.563v1.875A.563.563,0,0,0,5.063,21H6.938a.562.562,0,0,0,.563-.562V18.563A.563.563,0,0,0,6.938,18Zm4.5-4.5H9.563A.563.563,0,0,0,9,14.063v1.875a.563.563,0,0,0,.563.563h1.875A.563.563,0,0,0,12,15.938V14.063A.563.563,0,0,0,11.438,13.5Zm0-4.5H9.563A.563.563,0,0,0,9,9.563v1.875A.563.563,0,0,0,9.563,12h1.875A.563.563,0,0,0,12,11.438V9.563A.563.563,0,0,0,11.438,9Zm0,9H9.563A.563.563,0,0,0,9,18.563v1.875A.563.563,0,0,0,9.563,21h1.875A.562.562,0,0,0,12,20.438V18.563A.563.563,0,0,0,11.438,18ZM9,6h1.219a.281.281,0,0,0,.281-.281V4.781a.281.281,0,0,0-.281-.281H9V3.281A.281.281,0,0,0,8.719,3H7.781a.281.281,0,0,0-.281.281V4.5H6.281A.281.281,0,0,0,6,4.781v.938A.281.281,0,0,0,6.281,6H7.5V7.219a.281.281,0,0,0,.281.281h.938A.281.281,0,0,0,9,7.219Zm13.5,9A4.5,4.5,0,1,0,18,10.5,4.5,4.5,0,0,0,22.5,15Zm0-7.5a3,3,0,1,1-3,3,3,3,0,0,1,3-3Zm6.735,10.365a4.3,4.3,0,0,0-3.6-1.834c-1.3,0-1.631.469-3.131.469s-1.826-.469-3.131-.469a4.3,4.3,0,0,0-3.6,1.833A4.477,4.477,0,0,0,15,20.375v1.75A1.875,1.875,0,0,0,16.875,24h11.25A1.875,1.875,0,0,0,30,22.125v-1.75A4.477,4.477,0,0,0,29.235,17.865Zm-.735,4.26a.375.375,0,0,1-.375.375H16.875a.375.375,0,0,1-.375-.375v-1.75a2.982,2.982,0,0,1,.509-1.672,2.807,2.807,0,0,1,2.361-1.172c1.022,0,1.406.469,3.131.469s2.109-.469,3.131-.469A2.806,2.806,0,0,1,27.991,18.7a2.982,2.982,0,0,1,.509,1.672ZM15,6V16.421a5.6,5.6,0,0,1,1.5-1.172V6A1.5,1.5,0,0,0,15,4.5h-.75v-3A1.5,1.5,0,0,0,12.75,0h-9a1.5,1.5,0,0,0-1.5,1.5v3H1.5A1.5,1.5,0,0,0,0,6V23.625A.375.375,0,0,0,.375,24h.75a.375.375,0,0,0,.375-.375V6H3.75V1.5h9V6Z"/></svg>