<svg xmlns="http://www.w3.org/2000/svg" width="18" height="14.4" viewBox="0 0 18 14.4"><defs><style>.user-svg-icon{fill:#1f80f1;}</style></defs><path class="user-svg-icon" d="M17.5,7.625l-3.24-1.266a.872.872,0,0,0-.624,0L10.4,7.625a.761.761,0,0,0-.5.7,6.394,6.394,0,0,0,3.738,6.016.873.873,0,0,0,.624,0A6.373,6.373,0,0,0,18,8.325.761.761,0,0,0,17.5,7.625ZM13.95,13V7.687l2.686,1.049A5.031,5.031,0,0,1,13.95,13Zm-3.932.045H1.35v-.72A2.434,2.434,0,0,1,3.78,9.9a11.012,11.012,0,0,0,2.52.45,8.433,8.433,0,0,0,2.4-.436,8.485,8.485,0,0,1-.143-1.336A10.384,10.384,0,0,1,6.3,9c-1.325,0-1.71-.45-2.52-.45A3.78,3.78,0,0,0,0,12.33v.72A1.35,1.35,0,0,0,1.35,14.4h9.88a7.814,7.814,0,0,1-1.212-1.35ZM6.3,8.1A4.05,4.05,0,1,0,2.25,4.05,4.051,4.051,0,0,0,6.3,8.1Zm0-6.75a2.7,2.7,0,1,1-2.7,2.7A2.7,2.7,0,0,1,6.3,1.35Z"/></svg>