<svg xmlns="http://www.w3.org/2000/svg" viewBox="0 0 100 80.923"><defs></defs><g class="a"><g transform="translate(0 29.862)"><path class="b" d="M79.916,160.017H1.347A1.345,1.345,0,0,0,0,161.36v37.715a1.345,1.345,0,0,0,1.343,1.347H54.772a1.347,1.347,0,1,0,0-2.693H2.693V162.71H78.567v3.367a1.345,1.345,0,0,0,1.343,1.347h0a1.345,1.345,0,0,0,1.347-1.343v-4.717A1.345,1.345,0,0,0,79.916,160.017Z" transform="translate(0 -160.017)"/></g><g transform="translate(3.142 9.435)"><path class="b" d="M83.634,70.194,20.781,56.052a1.347,1.347,0,0,0-1.611,1.021L16.028,71.215a1.347,1.347,0,0,0,2.63.585l2.849-12.824L83.043,72.821a1.27,1.27,0,0,0,.3.033,1.347,1.347,0,0,0,.294-2.66Z" transform="translate(-15.995 -56.019)"/></g><g transform="translate(20.403)"><path class="b" d="M146.621,23.8,108.909,8.086a1.351,1.351,0,0,0-1.728.643l-3.143,6.285a1.351,1.351,0,0,0,2.377,1.285c.014-.026.027-.052.039-.079v0l2.579-5.16L145.58,26.292a1.35,1.35,0,1,0,1.04-2.492Z" transform="translate(-103.875 -7.982)"/></g><g transform="translate(50.283 36.147)"><path class="b" d="M269.818,192.017H257.347a1.347,1.347,0,1,0,0,2.693h12.472a1.347,1.347,0,0,0,0-2.693Z" transform="translate(-256 -192.017)"/></g><g transform="translate(25.231 36.237)"><path class="b" d="M142.284,192.473A13.828,13.828,0,1,0,156.111,206.3,13.828,13.828,0,0,0,142.284,192.473Zm0,25.141A11.314,11.314,0,1,1,153.6,206.3,11.313,11.313,0,0,1,142.284,217.614Z" transform="translate(-128.456 -192.473)"/></g><g transform="translate(59.486 40.637)"><path class="b" d="M320.141,214.873c-8.328,0-17.285,1.967-17.285,6.285V258.87c0,4.318,8.957,6.285,17.285,6.285s17.285-1.967,17.285-6.285V221.158C337.425,216.84,328.469,214.873,320.141,214.873Zm14.142,43.974c-.237.872-4.95,3.166-14.142,3.166s-13.9-2.294-14.142-3.143V256.4c3.344,1.684,8.867,2.47,14.142,2.47s10.8-.794,14.142-2.472Zm0-6.285c-.237.872-4.95,3.166-14.142,3.166s-13.9-2.294-14.142-3.143v-2.47c3.344,1.684,8.867,2.47,14.142,2.47s10.8-.794,14.142-2.472Zm0-6.285c-.237.872-4.95,3.166-14.142,3.166s-13.9-2.294-14.142-3.143v-2.47c3.344,1.684,8.867,2.47,14.142,2.47s10.8-.794,14.142-2.472Zm0-6.285c-.237.872-4.95,3.166-14.142,3.166s-13.9-2.294-14.142-3.143v-2.47c3.344,1.684,8.867,2.47,14.142,2.47s10.8-.794,14.142-2.472Zm0-6.285c-.237.872-4.95,3.166-14.142,3.166s-13.9-2.294-14.142-3.143v-2.47c3.344,1.677,8.867,2.47,14.142,2.47s10.8-.794,14.142-2.472Zm0-6.285c-.237.872-4.95,3.166-14.142,3.166s-13.9-2.294-14.142-3.143v-2.47c3.344,1.677,8.867,2.47,14.142,2.47s10.8-.794,14.142-2.472ZM320.141,224.3c-9.178,0-13.889-2.288-14.142-3.114v-.009c.253-.875,4.964-3.162,14.142-3.162,9.114,0,13.828,2.253,14.142,3.143C333.968,222.048,329.254,224.3,320.141,224.3Z" transform="translate(-302.856 -214.873)"/></g><g transform="translate(6.284 36.147)"><path class="b" d="M52.2,217.157H40.318L34.687,211V200.783l6.219-6.073H52.2a1.347,1.347,0,0,0,0-2.693H40.359a1.348,1.348,0,0,0-.943.382L32.4,199.245a1.688,1.688,0,0,0-.405,1.1V211.52a1.348,1.348,0,0,0,.352.908l6.384,6.983a1.346,1.346,0,0,0,.995.438H52.2a1.347,1.347,0,1,0,0-2.693Z" transform="translate(-31.992 -192.017)"/></g><g transform="translate(34.345 42.994)"><path class="b" d="M180.356,232.373h-1.571c-.489,0-.786-.273-.786-.393s.3-.393.786-.393h3.928a1.571,1.571,0,1,0,0-3.143h-1.571a1.571,1.571,0,1,0-3.143,0v.071a3.658,3.658,0,0,0-3.143,3.457,3.752,3.752,0,0,0,3.928,3.543h1.571c.489,0,.786.273.786.393s-.3.393-.786.393h-3.928a1.571,1.571,0,1,0,0,3.143H178a1.571,1.571,0,1,0,3.143,0v-.071a3.658,3.658,0,0,0,3.143-3.457A3.752,3.752,0,0,0,180.356,232.373Z" transform="translate(-174.856 -226.873)"/></g></g></svg>