<svg xmlns="http://www.w3.org/2000/svg" width="27.497" height="24.06" viewBox="0 0 27.497 24.06"><defs></defs><path class="a" d="M24.92,32H2.578A2.578,2.578,0,0,0,0,34.578v18.9A2.578,2.578,0,0,0,2.578,56.06H24.92A2.578,2.578,0,0,0,27.5,53.482v-18.9A2.578,2.578,0,0,0,24.92,32ZM8.593,54.342H2.578a.859.859,0,0,1-.859-.859v-4.3H8.593Zm0-6.874H1.719V42.312H8.593Zm0-6.874H1.719V35.437H8.593Zm8.593,13.749H10.312V49.186h6.874Zm0-6.874H10.312V42.312h6.874Zm0-6.874H10.312V35.437h6.874Zm8.593,8.593v4.3a.859.859,0,0,1-.859.859H18.9V49.186Zm0-1.719H18.9V42.312h6.874Zm0-6.874H18.9V35.437h6.874Z" transform="translate(0 -32)"/></svg>