<svg xmlns="http://www.w3.org/2000/svg" width="32.008" height="24" viewBox="0 0 32.008 24"><defs></defs><path class="a" d="M3,64h8.25a.752.752,0,0,1,.75.75v.5a.752.752,0,0,1-.75.75H3a1,1,0,0,0-1,1V85a1,1,0,0,0,1,1h8.25a.752.752,0,0,1,.75.75v.5a.752.752,0,0,1-.75.75H3a3,3,0,0,1-3-3V67A3,3,0,0,1,3,64Zm17.438,1.219-.444.444a.751.751,0,0,0,0,1.063l8.25,8.212H10.75a.752.752,0,0,0-.75.75v.625a.752.752,0,0,0,.75.75H28.244L20,85.275a.751.751,0,0,0,0,1.062l.444.444a.751.751,0,0,0,1.063,0l10.281-10.25a.751.751,0,0,0,0-1.062L21.5,65.219A.751.751,0,0,0,20.438,65.219Z" transform="translate(0 -64)"/></svg>