<svg xmlns="http://www.w3.org/2000/svg" viewBox="0 0 20 15.336"><defs></defs><path class="a" d="M18.889,65.111a1.112,1.112,0,0,0-.632.2l-3.81,2.428V65.66a1.734,1.734,0,0,0-1.8-1.66H1.8A1.734,1.734,0,0,0,0,65.66V75.676a1.734,1.734,0,0,0,1.8,1.66H12.648a1.734,1.734,0,0,0,1.8-1.66V73.6l3.806,2.427A1.113,1.113,0,0,0,20,75.13V66.205a1.1,1.1,0,0,0-1.111-1.094ZM13.336,75.676a.639.639,0,0,1-.688.549H1.8a.639.639,0,0,1-.688-.549V65.66a.639.639,0,0,1,.688-.549H12.648a.639.639,0,0,1,.688.549V75.676Zm5.557-.545-.042-.045-4.4-2.806V69.053l4.445-2.83Z" transform="translate(0 -64)"/></svg>