<svg xmlns="http://www.w3.org/2000/svg" viewBox="0 0 100 60.923"><defs></defs><g class="a"><path class="b" d="M170.679,21.334h-2.667V20a4,4,0,1,0-8,0v1.334h-5.334V20a4,4,0,1,0-8,0v1.334H141.34V20a4,4,0,1,0-8,0v1.334H128V20a4,4,0,1,0-8,0v1.334h-2.667A5.34,5.34,0,0,0,112,26.669V50.674h2.667v-12h58.679V62.677h-8a5.34,5.34,0,0,0-5.334,5.334v8H141.34V78.68h29.34a5.3,5.3,0,0,0,2.667-.718v.718a2.67,2.67,0,0,1-2.667,2.667H140.006v2.667h30.673a5.3,5.3,0,0,0,2.667-.718v.718a2.67,2.67,0,0,1-2.667,2.667h-33.34v2.667h33.34a5.34,5.34,0,0,0,5.334-5.334V26.669a5.34,5.34,0,0,0-5.334-5.334Zm-8-1.334a1.334,1.334,0,1,1,2.667,0v5.334a1.334,1.334,0,1,1-2.667,0Zm-13.336,0a1.334,1.334,0,1,1,2.667,0v5.334a1.334,1.334,0,1,1-2.667,0Zm-13.336,0a1.334,1.334,0,0,1,2.667,0v5.334a1.334,1.334,0,1,1-2.667,0Zm-13.336,0a1.334,1.334,0,1,1,2.667,0v5.334a1.334,1.334,0,1,1-2.667,0Zm-8,16V26.669A2.67,2.67,0,0,1,117.334,24H120v1.334a4,4,0,1,0,8,0V24h5.334v1.334a4,4,0,1,0,8,0V24h5.334v1.334a4,4,0,1,0,8,0V24h5.334v1.334a4,4,0,1,0,8,0V24h2.667a2.67,2.67,0,0,1,2.667,2.667V36Zm48.01,32.007a2.67,2.67,0,0,1,2.667-2.667h6.116l-8.783,8.783Zm8,8h-6.116l8.783-8.783v6.116a2.67,2.67,0,0,1-2.667,2.667Z" transform="translate(-96.007 -16)"/><path class="b" d="M57.361,253.81l3.845-6.464a1.334,1.334,0,0,0-1.407-1.99l-6.859,1.369a21.339,21.339,0,0,0-28.357-2.461l1.6,2.132a18.672,18.672,0,0,1,25.27,2.662,1.334,1.334,0,0,0,1.265.43l4.661-.93-2.648,4.451a1.334,1.334,0,0,0-.086,1.192A18.673,18.673,0,1,1,23.7,248.641l-1.955-1.814a21.333,21.333,0,1,0,35.619,6.984Z" transform="translate(-16.062 -202.655)"/><path class="b" d="M65.334,306.671H72v6.668a1.334,1.334,0,0,0,1.334,1.334h8a1.334,1.334,0,0,0,1.334-1.334v-6.668h6.668a1.334,1.334,0,0,0,1.334-1.334v-8A1.334,1.334,0,0,0,89.339,296H82.671v-6.668A1.334,1.334,0,0,0,81.337,288h-8A1.334,1.334,0,0,0,72,289.334V296H65.334A1.334,1.334,0,0,0,64,297.335v8A1.334,1.334,0,0,0,65.334,306.671Zm1.334-8h6.668a1.334,1.334,0,0,0,1.334-1.334v-6.668H80v6.668a1.334,1.334,0,0,0,1.334,1.334h6.668V304H81.337A1.334,1.334,0,0,0,80,305.337v6.668H74.669v-6.668A1.334,1.334,0,0,0,73.335,304H66.667Z" transform="translate(-56.009 -242.657)"/><path class="b" d="M232,184h2.667v2.667H232Z" transform="translate(-196.003 -155.994)"/><path class="b" d="M168,184h2.667v2.667H168Z" transform="translate(-142.672 -155.994)"/><path class="b" d="M360,184h2.667v2.667H360Z" transform="translate(-302.665 -155.994)"/><path class="b" d="M424,184h2.667v2.667H424Z" transform="translate(-355.996 -155.994)"/><path class="b" d="M296,184h2.667v2.667H296Z" transform="translate(-249.334 -155.994)"/><path class="b" d="M232,248h2.667v2.667H232Z" transform="translate(-196.003 -209.325)"/><path class="b" d="M360,248h2.667v2.667H360Z" transform="translate(-302.665 -209.325)"/><path class="b" d="M424,248h2.667v2.667H424Z" transform="translate(-355.996 -209.325)"/><path class="b" d="M296,248h2.667v2.667H296Z" transform="translate(-249.334 -209.325)"/><path class="b" d="M360,312h2.667v2.667H360Z" transform="translate(-302.665 -262.656)"/><path class="b" d="M296,312h2.667v2.667H296Z" transform="translate(-249.334 -262.656)"/></g></svg>