<svg xmlns="http://www.w3.org/2000/svg" viewBox="0 0 100 60.923"><defs></defs><g class="a"><path class="b" d="M72.7,34.413l-4.841-.969-.483-1.929c.085-.057.164-.12.246-.179a7.735,7.735,0,0,0,8.96-12.106,8.394,8.394,0,0,0,.545-2.935,8.511,8.511,0,0,0-1.693-5.077l-.96-1.28a4.34,4.34,0,0,0,.072-.618,4.288,4.288,0,0,0-2.383-3.857l-7.5-3.748a6.873,6.873,0,0,0-6.043,0l-7.5,3.748a4.288,4.288,0,0,0-2.383,3.857,4.322,4.322,0,0,0,.072.617l-.96,1.279a8.522,8.522,0,0,0-1.693,5.08,8.4,8.4,0,0,0,.545,2.937,7.732,7.732,0,0,0,8.96,12.1c.083.059.163.123.246.179l-.483,1.929-4.841.969a10.29,10.29,0,0,0-7.912,7.418A13.717,13.717,0,0,0,41,43.081a13.269,13.269,0,0,0-1.677-1.252,10.286,10.286,0,0,0-7.911-7.418l-4.769-.954L26.1,30.214a10.355,10.355,0,0,0,4.236-5.988h.341a5.153,5.153,0,0,0,4.3-8.006l.548-2.195A10.48,10.48,0,0,0,25.357,1H17.4A8.984,8.984,0,0,0,9.319,5.992L9.2,6.228a5.169,5.169,0,0,0-4.33,5.094,18.949,18.949,0,0,0,.848,4.923,5.15,5.15,0,0,0,4.314,7.981h.339a10.351,10.351,0,0,0,4.236,5.988l-.541,3.244L9.3,34.412A10.351,10.351,0,0,0,1,44.533V60.355A7.75,7.75,0,0,0,8.742,68.1V81h67.6l-.565-1.7a56.982,56.982,0,0,1-2.459-11.208A7.749,7.749,0,0,0,81,60.355V44.533a10.348,10.348,0,0,0-8.3-10.12Zm5.717,10.12v8.08H73.258V46.161H70.677V57.774H62.3a14.508,14.508,0,0,0,.637-4.218c0-.316-.021-.63-.041-.943h.041V39.71l4.444,3.333L70,36.5l2.2.44A7.763,7.763,0,0,1,78.419,44.533ZM59.2,37.35l-2.145,1.608-1.188-2.97L56.3,35.9ZM66.987,35.9l.434.086-1.188,2.97L64.088,37.35ZM60.355,39.71v5.566c-.25-.364-.516-.717-.8-1.059a12.6,12.6,0,0,0-2.338-2.154ZM53.9,22.936V16.484H69.387v6.452a7.742,7.742,0,1,1-15.484,0Zm21.935,1.29a5.166,5.166,0,0,1-5.161,5.161,5.073,5.073,0,0,1-.917-.093,10.259,10.259,0,0,0,2.117-5.058l1.145-.686a8.416,8.416,0,0,0,2.13-1.853,5.116,5.116,0,0,1,.686,2.529Zm-3.871-3.079V15.5l1.382-2.764.023.03a5.866,5.866,0,0,1-1.405,8.382ZM52.28,7.77l7.5-3.748a4.248,4.248,0,0,1,3.735,0l7.5,3.748a1.731,1.731,0,0,1,.772,2.323l-1.9,3.81H62.935V11.323h2.581V8.742H62.935V6.161H60.355V8.742H57.774v2.581h2.581V13.9H53.41L51.5,10.093a1.754,1.754,0,0,1-.182-.774A1.722,1.722,0,0,1,52.28,7.77Zm-2.361,4.994.022-.03L51.323,15.5v5.648a5.864,5.864,0,0,1-1.4-8.382ZM47.452,24.226a5.1,5.1,0,0,1,.688-2.528,8.372,8.372,0,0,0,2.13,1.853l1.145.686A10.264,10.264,0,0,0,53.532,29.3a5.115,5.115,0,0,1-6.08-5.07Zm14.194,9.032a10.277,10.277,0,0,0,3.365-.574l.293,1.173-3.658,1.83-3.658-1.83.293-1.173a10.277,10.277,0,0,0,3.365.574ZM51.094,36.942l2.2-.44,1.717,4.293A12.519,12.519,0,0,0,49.93,39.71a13.564,13.564,0,0,0-3.735.525,7.716,7.716,0,0,1,4.9-3.293ZM41,46.7l1.206-1.206a10.857,10.857,0,0,1,7.724-3.2,9.921,9.921,0,0,1,7.641,3.579,12.027,12.027,0,0,1,2.783,7.686,11.89,11.89,0,0,1-.782,4.218h-6.96a5.108,5.108,0,0,0-2.581.717v-.717a2.583,2.583,0,0,0-2.581-2.581H44.871V52.613a2.583,2.583,0,0,0-2.581-2.581H39.71a2.583,2.583,0,0,0-2.581,2.581v2.581H34.548a2.583,2.583,0,0,0-2.581,2.581v.717a5.108,5.108,0,0,0-2.581-.717h-6.96a11.885,11.885,0,0,1-.782-4.218,12.024,12.024,0,0,1,2.783-7.686A9.921,9.921,0,0,1,32.07,42.29a10.857,10.857,0,0,1,7.724,3.2ZM54.437,68.1h5.917V78.419H44.115ZM41,77.885,30.946,67.831a5.152,5.152,0,0,0,3.6-4.9h2.581v2.581A2.583,2.583,0,0,0,39.71,68.1H42.29a2.583,2.583,0,0,0,2.581-2.581V62.936h2.581a5.149,5.149,0,0,0,3.6,4.894ZM29.387,60.355a2.581,2.581,0,0,1,0,5.161H26.806V60.355Zm18.065-2.577v2.577H42.29v5.161H39.71V60.355H34.548V57.774H39.71V52.613H42.29v5.161ZM19.755,41,19,39.866l1.356-1.084,1.356,1.084L20.955,41Zm3.514,2.334-.223-.817.689-1.032.875.7A12.418,12.418,0,0,0,23.268,43.334Zm-6.292-1.85.688,1.032L17.148,44.4l-1.2-2.1Zm3.072,2.1h.612l.622,2.27A14.585,14.585,0,0,0,19.8,49.037l-.84-1.47Zm15.756-3.346a13.557,13.557,0,0,0-3.735-.525,12.543,12.543,0,0,0-3.084.4l1.821-3.185.1.019a7.716,7.716,0,0,1,4.9,3.293Zm-7.666-3.846-2.084,3.648-3.319-2.655L25.7,35.9Zm-7.6-18.614h-.366a5.089,5.089,0,0,0-6.765-3.533,5.13,5.13,0,0,1,2.453-2.052l.557-.223a9.072,9.072,0,0,0,4.959,4.049A5.114,5.114,0,0,0,20.538,17.774Zm-5.345-1.29a2.581,2.581,0,1,1-2.581,2.581A2.583,2.583,0,0,1,15.194,16.484Zm10.323,0a2.581,2.581,0,1,1-2.581,2.581A2.583,2.583,0,0,1,25.516,16.484Zm5.161,5.161V16.484a2.581,2.581,0,0,1,0,5.161ZM10.032,8.742h.8l.8-1.595A6.415,6.415,0,0,1,17.4,3.581h7.96A7.9,7.9,0,0,1,33.022,13.4l-.241.964a5.117,5.117,0,0,0-2.1-.458H24.226a6.459,6.459,0,0,1-6.452-6.452H15.194a8.971,8.971,0,0,0,.262,2.119l-.556.223a7.685,7.685,0,0,0-4.218,4.11h-.649a5.1,5.1,0,0,0-2.141.479,13.959,13.959,0,0,1-.44-3.059,2.583,2.583,0,0,1,2.581-2.581ZM7.452,19.065a2.583,2.583,0,0,1,2.581-2.581h.037c-.01.166-.037.328-.037.5v4.665A2.583,2.583,0,0,1,7.452,19.065Zm5.436,4.592a5.09,5.09,0,0,0,2.306.569,5.155,5.155,0,0,0,4.978-3.871h.366a5.155,5.155,0,0,0,4.978,3.871,5.09,5.09,0,0,0,2.306-.569,7.73,7.73,0,0,1-14.934,0Zm7.467,8.311a10.278,10.278,0,0,0,3.33-.561l.4,2.414-3.733,1.866-3.732-1.866.4-2.414A10.264,10.264,0,0,0,20.355,31.968ZM15.012,35.9l2.961,1.481-3.32,2.655L12.569,36.39ZM3.581,60.355V44.533A7.762,7.762,0,0,1,9.8,36.942l.1-.019L19.089,53c-.008.186-.025.372-.025.557a14.508,14.508,0,0,0,.637,4.218H11.323V46.161H8.742V58.53l-2.2,2.2,1.825,1.825,2.2-2.2H24.226v5.161H8.742a5.166,5.166,0,0,1-5.161-5.161ZM11.323,68.1h16.24L37.885,78.419H11.323ZM62.935,78.419V68.1h7.794A52.378,52.378,0,0,0,72.8,78.419Zm10.323-12.9H52.613a2.581,2.581,0,0,1,0-5.161H71.434l2.2,2.2,1.825-1.825-2.2-2.2V55.194h5.161v5.161A5.166,5.166,0,0,1,73.258,65.516Z" transform="translate(-1 -1)"/><path class="b" d="M55.521,20.2l.156-.313-2.658-1.33-.156.315a3.322,3.322,0,0,1-5.943,0l-.156-.313-2.658,1.33.156.313a6.294,6.294,0,0,0,11.259,0Z" transform="translate(10.305 3.894)"/><ellipse class="b" cx="1.617" cy="1.213" rx="1.617" ry="1.213" transform="translate(55.168 18.183)"/><ellipse class="b" cx="1.617" cy="1.213" rx="1.617" ry="1.213" transform="translate(62.85 18.183)"/></g></svg>