<svg id="Layer_1" data-name="Layer 1" xmlns="http://www.w3.org/2000/svg" width="48px" height="48px" viewBox="0 0 48 48">
    <g id="mic">
        <circle id="Ellipse_386" data-name="Ellipse 386" cx="24.22" cy="24.01" r="23.78" opacity="0.5"/>
        <path id="mic-2" data-name="mic"
              d="M33.21,18.13a1.39,1.39,0,0,0-.79.24L29,20.55V19A2,2,0,0,0,26.9,17h-11A2,2,0,0,0,13.85,19V29.07A2,2,0,0,0,15.94,31h11A2,2,0,0,0,29,29.07v-1.6l3.41,2.18a1.4,1.4,0,0,0,2-.35,1.37,1.37,0,0,0,.25-.78v-9a1.32,1.32,0,0,0-.39-1A1.42,1.42,0,0,0,33.21,18.13ZM15.52,29.51,15.46,18.9l.18-.13.16-.09,11.52-.15V29.35ZM32.93,28,29,25.49V22.54L32.93,20Z"
              fill="#fff"/>
    </g>
</svg>
