<svg id="Layer_1" data-name="Layer 1" xmlns="http://www.w3.org/2000/svg" width="48px" height="48px" viewBox="0 0 48 48">
    <g id="mic">
        <circle id="Ellipse_386" data-name="Ellipse 386" cx="24.22" cy="24.01" r="23.78" fill="red" opacity="0.5"/>
        <path d="M34.81,33.29a.56.56,0,0,1-.37-.13L12.92,16.22a.6.6,0,0,1-.09-.83l.35-.44a.58.58,0,0,1,.46-.22.64.64,0,0,1,.37.13L35.53,31.8a.6.6,0,0,1,.09.83l-.35.44A.58.58,0,0,1,34.81,33.29ZM15.94,31.05a2.06,2.06,0,0,1-2.12-2V18.33l.5.35,1.24,1v9.41c0,.12.16.25.38.25h11a.46.46,0,0,0,.33-.13l.19-.19,1.35,1.06-.21.24a2.16,2.16,0,0,1-1.66.76Zm17-2.68V20.08L29,22.55v2.77L27.28,24V19c0-.11-.17-.24-.39-.24H20.62L18.42,17h8.47A2.06,2.06,0,0,1,29,19v1.54l3.37-2.15a1.45,1.45,0,0,1,.8-.25,1.43,1.43,0,0,1,1.44,1.41v9a1.47,1.47,0,0,1-.16.63l-.17.34Z"
              fill="#fff"/>
    </g>
</svg>
