<svg xmlns="http://www.w3.org/2000/svg" width="16" height="16" viewBox="0 0 16 16">
  <g id="Group_1304" data-name="Group 1304" transform="translate(-123 -253)">
    <path id="Path_2583" data-name="Path 2583" d="M572.8,216.332a1.28,1.28,0,0,1,1.992-.036l1.94,1.94a1,1,0,0,1-1.643.385l1.643,1.643,1.014-1.014h0l-1.014,1.014Z" transform="translate(-445.602 41.371)" fill="#fe330a" fill-rule="evenodd"/>
    <path id="Path_2584" data-name="Path 2584" d="M679.548,121.032a1.281,1.281,0,0,0-1.993-.036l-4.126,4.127a1.3,1.3,0,0,1-1.659.4l1.643,1.643Z" transform="translate(-542.284 134.468)" fill="#ff8f00" fill-rule="evenodd"/>
    <path id="Path_2585" data-name="Path 2585" d="M702.192,204.979a.965.965,0,1,0-.962-.967A.965.965,0,0,0,702.192,204.979Z" transform="translate(-571.063 53.858)" fill="#ca0001" fill-rule="evenodd"/>
    <path id="Path_2586" data-name="Path 2586" d="M745.624,276.7c-.026-.028-.017-.054-.017-.079,0-.233,0-.465,0-.7a1.125,1.125,0,0,1,.467-.934c.413-.311.828-.62,1.242-.93.1-.075.2-.15.3-.227a2.331,2.331,0,0,0,.921-1.561,2.549,2.549,0,0,0,.023-.353c0-.48,0-.96,0-1.44a1.117,1.117,0,0,1,.046-.35,1.1,1.1,0,0,1,.9-.79,1.137,1.137,0,0,1,.147-.009.65.65,0,0,1,.015.068.573.573,0,0,1,0,.066c0,.831,0,1.662,0,2.493a3.409,3.409,0,0,1-.923,2.345,3.252,3.252,0,0,1-.46.415l-2.582,1.932C745.677,276.668,745.649,276.684,745.624,276.7Z" transform="translate(-614.412 -10.889)" fill="#333"/>
    <path id="Path_2587" data-name="Path 2587" d="M564.26,269.449a.686.686,0,0,1,.3.031,1.107,1.107,0,0,1,.806,1.059q0,.748,0,1.5a2.376,2.376,0,0,0,.968,1.926l1.508,1.128a1.166,1.166,0,0,1,.415.548,1.034,1.034,0,0,1,.064.347v.775a.3.3,0,0,1-.006.043c-.042.009-.063-.023-.087-.042l-.86-.644-1.7-1.275a3.449,3.449,0,0,1-1.126-1.426,3.272,3.272,0,0,1-.26-1.026c-.01-.114-.017-.228-.017-.343q0-1.235,0-2.47C564.256,269.537,564.259,269.5,564.26,269.449Z" transform="translate(-437.255 -11)" fill="#333"/>
    <rect id="Rectangle_608" data-name="Rectangle 608" width="16" height="16" transform="translate(123 253)" fill="none"/>
  </g>
</svg>
